<?xml version="1.0" encoding="UTF-8"?>
<svg width="80px" height="20px" viewBox="0 0 80 20" version="1.1" xmlns="http://www.w3.org/2000/svg" xmlns:xlink="http://www.w3.org/1999/xlink">
    <!-- Generator: Sketch 48.2 (47327) - http://www.bohemiancoding.com/sketch -->
    <title>Cafe Board Horizontal</title>
    <desc>Created with Sketch.</desc>
    <defs></defs>
    <g id="Events" stroke="none" stroke-width="1" fill="none" fill-rule="evenodd" transform="translate(-208.000000, -44.000000)">
        <g id="Cafe-Board-Horizontal" transform="translate(208.000000, 44.000000)" fill="#FFFFFF">
            <path d="M8.76969697,9.6004878 C8.76969697,6.99658537 6.664,4.87804878 4.07587879,4.87804878 L3.52048485,4.87804878 L2.34690909,7.80390244 L4.07587879,7.80390244 C5.06036364,7.80390244 5.86157576,8.6097561 5.86157576,9.6004878 C5.86157576,10.5912195 5.06036364,11.3973171 4.07587879,11.3973171 L1.17333333,11.3973171 L0,14.3231707 L4.07587879,14.3231707 C6.664,14.3231707 8.76969697,12.2046341 8.76969697,9.6004878" id="Fill-3-Copy"></path>
            <path d="M35.0433939,15.6097561 C34.032,15.6097561 33.2121212,16.4346341 33.2121212,17.4521951 C33.2121212,18.4697561 34.032,19.2946341 35.0433939,19.2946341 C36.0547879,19.2946341 36.8746667,18.4697561 36.8746667,17.4521951 C36.8746667,16.4346341 36.0547879,15.6097561 35.0433939,15.6097561" id="Fill-4-Copy"></path>
            <path d="M36.718303,9.56731707 L36.718303,5.12195122 L33.8101818,6.30292683 L33.8101818,9.56731707 C33.8101818,10.5580488 33.0089697,11.3641463 32.0244848,11.3641463 L13.0242424,11.3641463 L7.03030303,17.9797561 L9.19539394,19.9331707 L14.3224242,14.29 L32.0244848,14.29 C34.6126061,14.29 36.718303,12.1714634 36.718303,9.56731707" id="Fill-5-Copy"></path>
            <path d="M27.7037576,9.03707317 L30.9486061,5.77243902 C31.8717576,4.84365854 31.8717576,3.33268293 30.9486061,2.40390244 C30.025697,1.47512195 28.5236364,1.47512195 27.6007273,2.40390244 C26.6775758,3.33268293 26.6775758,4.84365854 27.6007273,5.77243902 C27.8261818,5.99926829 28.0860606,6.1702439 28.3638788,6.28609756 L26.6666667,7.99365854 L27.7037576,9.03707317 L27.7037576,9.03707317 Z M28.6378182,3.44731707 C28.9890909,3.09390244 29.5604848,3.09414634 29.9115152,3.44731707 C30.2627879,3.80073171 30.2627879,4.37560976 29.9115152,4.72878049 C29.5604848,5.08219512 28.9890909,5.08219512 28.6378182,4.72878049 C28.2865455,4.37560976 28.2865455,3.80073171 28.6378182,3.44731707 L28.6378182,3.44731707 Z" id="Fill-6-Copy"></path>
            <path d="M59.5282424,0 C58.5168485,0 57.6969697,0.824878049 57.6969697,1.84243902 C57.6969697,2.86 58.5168485,3.68487805 59.5282424,3.68487805 C60.5396364,3.68487805 61.3595152,2.86 61.3595152,1.84243902 C61.3595152,0.824878049 60.5396364,0 59.5282424,0" id="Fill-1-Copy"></path>
            <path d="M77.7078788,0.975609756 L71.9316364,7.33292683 L74.0964848,9.28634146 L75.3340606,7.94707317 C75.9095758,8.24560976 76.3042424,8.8495122 76.3042424,9.54463415 C76.3042424,10.5353659 75.5032727,11.3414634 74.5185455,11.3414634 L69.5747879,11.3414634 L69.5747879,1.68780488 L66.6666667,2.87170732 L66.6666667,14.2670732 L74.5369697,14.2670732 L74.5369697,14.2668293 C75.7059394,14.262439 76.7755152,13.8258537 77.5956364,13.1078049 L77.5961212,13.107561 C77.6242424,13.0826829 77.6521212,13.0578049 77.6795152,13.0326829 C77.68,13.0321951 77.6804848,13.0319512 77.6809697,13.0314634 C77.7081212,13.0063415 77.7350303,12.9812195 77.761697,12.9556098 C77.7624242,12.9546341 77.7633939,12.9536585 77.7643636,12.9529268 C77.7905455,12.9278049 77.8162424,12.9021951 77.841697,12.8763415 C77.8431515,12.875122 77.8443636,12.8736585 77.8458182,12.8721951 C77.8707879,12.8470732 77.8957576,12.8214634 77.9202424,12.7956098 C77.9219394,12.7936585 77.9236364,12.7917073 77.9253333,12.79 C77.9493333,12.7643902 77.9730909,12.7387805 77.9966061,12.7126829 C77.9985455,12.7102439 78.0007273,12.7080488 78.0026667,12.7056098 C78.025697,12.68 78.0484848,12.6541463 78.0710303,12.6280488 C78.0734545,12.625122 78.0756364,12.622439 78.0780606,12.6195122 C78.1001212,12.5936585 78.1219394,12.5678049 78.1435152,12.5417073 C78.1464242,12.5380488 78.1490909,12.5343902 78.152,12.5307317 C78.1728485,12.505122 78.193697,12.4795122 78.2138182,12.4534146 C78.2169697,12.4492683 78.2201212,12.445122 78.2232727,12.4409756 C78.2431515,12.4153659 78.2627879,12.3895122 78.2821818,12.3636585 C78.2858182,12.3587805 78.2892121,12.3539024 78.2926061,12.3490244 C78.3115152,12.3234146 78.3301818,12.2978049 78.3486061,12.2719512 C78.3522424,12.2665854 78.3556364,12.2614634 78.3595152,12.2560976 C78.3772121,12.2304878 78.3951515,12.204878 78.4126061,12.1787805 C78.4167273,12.1726829 78.4203636,12.1665854 78.4244848,12.1607317 C78.4414545,12.135122 78.4581818,12.1097561 78.4744242,12.0839024 C78.4787879,12.0770732 78.4829091,12.0702439 78.4872727,12.0634146 C78.5030303,12.0382927 78.5187879,12.0129268 78.534303,11.987561 C78.5389091,11.9797561 78.5432727,11.9719512 78.5481212,11.9641463 C78.5626667,11.9395122 78.5774545,11.9146341 78.5917576,11.8897561 C78.5963636,11.8814634 78.6007273,11.8734146 78.6053333,11.8653659 C78.6193939,11.8404878 78.6334545,11.8153659 78.6470303,11.79 C78.6513939,11.7819512 78.6557576,11.7734146 78.6601212,11.765122 C78.6734545,11.74 78.6870303,11.7146341 78.6998788,11.6892683 C78.7044848,11.68 78.7090909,11.6704878 78.713697,11.6612195 C78.7260606,11.6365854 78.7384242,11.6119512 78.750303,11.5870732 C78.7553939,11.5765854 78.76,11.5660976 78.7648485,11.5556098 C78.7762424,11.5317073 78.7873939,11.507561 78.798303,11.4834146 C78.8033939,11.4721951 78.8082424,11.4609756 78.8130909,11.4495122 C78.8235152,11.4258537 78.8339394,11.4021951 78.8441212,11.3782927 C78.8492121,11.3663415 78.8540606,11.3539024 78.8589091,11.3417073 C78.8683636,11.3185366 78.8780606,11.2953659 78.8872727,11.2719512 C78.8923636,11.2590244 78.8972121,11.2456098 78.902303,11.2326829 C78.9107879,11.2097561 78.9195152,11.1873171 78.928,11.1643902 C78.9328485,11.1507317 78.9374545,11.1368293 78.942303,11.1231707 C78.950303,11.1007317 78.9585455,11.0782927 78.9660606,11.0556098 C78.9709091,11.0412195 78.9752727,11.0268293 78.9798788,11.0126829 C78.9871515,10.9902439 78.9946667,10.9680488 79.001697,10.9453659 C79.0060606,10.9307317 79.0104242,10.9158537 79.0147879,10.9009756 C79.0213333,10.8787805 79.0281212,10.8565854 79.0344242,10.8341463 C79.0387879,10.8192683 79.0424242,10.8043902 79.0465455,10.7895122 C79.0526061,10.7670732 79.0589091,10.7443902 79.0647273,10.7217073 C79.0688485,10.7058537 79.0724848,10.6897561 79.0763636,10.6739024 C79.081697,10.6521951 79.0872727,10.6302439 79.0923636,10.6085366 C79.0964848,10.5904878 79.1001212,10.5726829 79.104,10.5546341 C79.1083636,10.5343902 79.1129697,10.5143902 79.1170909,10.4941463 C79.1207273,10.4756098 79.1241212,10.4570732 79.1277576,10.4387805 C79.1313939,10.4185366 79.1355152,10.3985366 79.1391515,10.3782927 C79.142303,10.3604878 79.1449697,10.342439 79.1481212,10.3246341 C79.1515152,10.3036585 79.1551515,10.2829268 79.158303,10.2619512 C79.1614545,10.2414634 79.1641212,10.2207317 79.1670303,10.2002439 C79.1694545,10.1817073 79.1723636,10.1631707 79.1747879,10.1446341 C79.1772121,10.1241463 79.1793939,10.1034146 79.1818182,10.0829268 C79.1837576,10.0639024 79.1861818,10.045122 79.1881212,10.0260976 C79.1900606,10.0082927 79.1912727,9.9904878 79.1929697,9.97268293 C79.1949091,9.95073171 79.1970909,9.92902439 79.1987879,9.90682927 C79.2002424,9.88585366 79.2014545,9.86487805 79.2026667,9.84365854 C79.2038788,9.82487805 79.2053333,9.80609756 79.206303,9.78707317 C79.2075152,9.76292683 79.2082424,9.73853659 79.2089697,9.71439024 C79.209697,9.69829268 79.2104242,9.68219512 79.2109091,9.66609756 C79.2118788,9.62585366 79.2123636,9.58536585 79.2123636,9.54463415 C79.2123636,8.00609756 78.4770909,6.63707317 77.3418182,5.77439024 L79.9549091,2.94682927 L77.7078788,0.975609756" id="Fill-2-Copy"></path>
            <path d="M59.633697,4.87804878 C57.0453333,4.87804878 54.9398788,6.99658537 54.9398788,9.6004878 C54.9398788,10.2363415 55.065697,10.8431707 55.2930909,11.3973171 L50.654303,11.3973171 L50.654303,6.23731707 L47.118303,6.23731707 C44.5299394,6.23731707 42.4242424,8.35585366 42.4242424,10.9597561 L42.4242424,14.2656098 L45.3323636,14.2656098 L45.3323636,10.9597561 C45.3323636,9.96902439 46.1335758,9.16317073 47.118303,9.16317073 L47.7461818,9.16317073 L47.7461818,14.3229268 L59.633697,14.3229268 C62.2218182,14.3229268 64.3275152,12.2046341 64.3275152,9.6004878 C64.3275152,6.99658537 62.2218182,4.87804878 59.633697,4.87804878 L59.633697,4.87804878 Z M59.633697,11.3973171 C58.6489697,11.3973171 57.8477576,10.5912195 57.8477576,9.6004878 C57.8477576,8.6097561 58.6489697,7.80365854 59.633697,7.80365854 C60.6184242,7.80365854 61.4196364,8.6097561 61.4196364,9.6004878 C61.4196364,10.5912195 60.6184242,11.3973171 59.633697,11.3973171 L59.633697,11.3973171 Z" id="Fill-7-Copy"></path>
        </g>
    </g>
</svg>